<svg xmlns="http://www.w3.org/2000/svg" height="630" width="1000"><defs><clipPath id="a" clipPathUnits="userSpaceOnUse"><path d="M0 0h1224v792H0V0Z"/></clipPath></defs><g clip-path="url(#a)" transform="matrix(1.25 0 0 -1.25 -96.615 814.78)"><path d="m0 0-.401.182-.491-.17s-.043.469-.587.789c0 0-.299.182-.694 0l-.149-.128-.246.41 16.915 17.412 2.316-.898L0 0Zm-5.727-3.81-1.11-1.088-.342.491-.182.088.118.652.242.311.697-.34.081.091.496-.205zm.799-2.315-3.561-3.786.478 1.647v1.309l.341.925.199 1.102.036.037-.027.013.603-.298s-.099-.583.47-.882c.569-.299.939.185.939.185l.522-.252zM-31.132-29.41l19.015 19.674-.463-1.531v-1.238l1.129-.556-16.953-18.028-2.728 1.679zM9.803 20.793l-.11-.494L-7.543 3.43l-.371.168v-.532L-2.482.492l-.726-.737-.438.182-.171-.224-.032-.235-.288.16-.618-.029.131.666-12.339 5.749-1.466-1.359-.285-2.312 7.814-3.808V-2.6l-1.509.733-.085-.52 1.594-.788-1.594.788-24.001-23.722-.368.226v-.589l5.366-3.315 2.73-1.687 5.709-3.527L.4-8.691l.142.498-5.579 2.732.854.954c.1.584-.384.84-.384.84l.227.284c.072.157-.142.342-.142.342l-.747.553.078.087.123.626h.816l1.014-.487.171.192.075.363s.395-.171.672.117L-.999-.223l5.848-2.616L21.51 15.717l.173.476-11.88 4.6z" style="fill:#333;fill-opacity:1;fill-rule:nonzero;stroke:none" transform="translate(734.53 364.437) scale(5.40447)"/><path d="M0 0h.05l.761.562v1.146l-.683.327-.825-.562v-.27l-.264.135-.832-.58V.043l1.089-.562L0 0Z" style="fill:#333;fill-opacity:1;fill-rule:nonzero;stroke:none" transform="translate(387.076 441.452) scale(5.40447)"/><path d="m0 0-.051.484.264 1.576c.065-.078.16-.159.3-.238a.702.702 0 0 1 .93.128l.457-.224L0 0Zm-22.639-20.563-2.388 1.466L-3.214.259l-.395-1.255.114-1.281-.238-1.114-18.906-17.172zm4.574 37.464v1.404a.536.536 0 0 1-.104.308l2.132-.03.019.759.46.095-.01-.344-.337-.094-.132-3.049-2.028.951zm-10.691-6.412V9.432l-1.164.602c.018.038.034.078.049.118a.937.937 0 0 1 .274.133l.979.698a.985.985 0 0 1-.138-.494m-7.771 16.936c.041-.139.135-.239.135-.239l.008-.059-.212-.147-.016.006.014.389.071.05zm.473-.07.015.055.036-.019-.051-.036zm1.349-1.973.715.022a.62.62 0 0 1-.021-.082l-.978-.482-.408.191-.001.011.651.354a.17.17 0 0 1 .042-.014m29.756 3.33c.484.364.575.893.438 1.425l.012.006c.246.213.321.565.321.565l.683.097.523.448.171.075-.032-.15 1.931-2.989.263.18-.366-.347-1.864-1.096-1.106-1.105-3.117 1.29 2.143 1.601zm3.261-7.649-1.779-1.039-.341-.318.01.527.488.46 1.764 1.082.492.449.398-.173-1.032-.988zm-12.509-1.812.039-.284s.118-.096.342-.199l-.432-.175-.942.451.993.207zm2.892 5.845-.034-.732a2.898 2.898 0 0 1-.524.162c.243.124.439.325.558.57m-.723-8.18.649.433 1.593 1.508.166.108.864.046-1.129-.68-1.509-1.409-.653-.306.019.3zm8.675 6.305-1.019-.966-.87-.031.793.504.694.667.402-.174zm-6.184 2.816.277.158-.241-.165v-.1l3.459-1.461-.2-.119-1.494-1.451-1.386-.812-.393-.014-.032-.234-.182-.107-.492-.479-.67-.022.106 1.195.166.494.154.456a.753.753 0 0 1-.103.375l1.622-.71.157.114.128 2.192-1.172.481.296.209zm2.783-8.475-1.48-1.437-1.893-1.139-1.333-1.184-.352.165.39.236 1.394 1.324 1.893 1.195 1.537 1.466 1.685 1.03.616.033-.621-.579-1.836-1.11zm3.97-12.346v.063l.005-.066-.005.003zm4.257-1.224.013-.007-1.067-.939-.038.018.094.565.25.363.476-.22.272.22zm-47.798 22.173v-.263l-.619-.363-.562.268-.051 1.256 1.421-.703-.189-.195zm-2.399 6.325.044-.611.334-.149-.292-.181-.979.452.893.489zm19.214 10.528 1.505-.59-15.151-8.395-.131.059-.633-.363v-.119l-.132-.073-.025.889-.562.278-.001.024 15.13 8.29zm-25.167-12.704.068-.032-.02-.011-.048.043zm-3.866-3.217-.071-.528-21.24-11.724-1.532.943L-58.904 28l.361-.903zm-30.998-6.328-1.424.873 26.29 13.158.283-.139c.142-.704.697-.647.697-.647l.37.156.108-.054-26.324-13.347zm27.127 13.835v-.17l.569-.26.189.065-.021.653.302.26.228-.171.101-1.445-1.823.862.455.206zm23.58 12.075 1.372-.538-20.242-10.317-1.384.647 20.254 10.208zm43.399-38.4 17.98 15.919 2.101-.815L6.819 7.273l-.516.231-.245-.139s-.011.502-.587.79c0 0-.278.107-.47 0l-.224-.143-.212.267ZM6.823-.085 1.87 2.377l.84.754c.171.271-.086.562-.086.562l.342.349c.085.128-.085.292-.085.292l-.527.385v.291l.228.384.009.149.649-.056.918-.395.181.149v.48l1.665 1.377H6.1l5.192-2.338 17.812 16.895.116.482-10.877 4.185-.056-.473L.066 10.443l-.374.174v-.49l4.914-2.314-.79-.64-.106.021-.182-.17-.043-.225-.309.16-.505-.061.039.645-4.697 2.234-.982.072-.256.185-2.032.921.129.114h.501s.385-.182.15.149l-.086.385.278-.097.16.161v.106s.555-.256.971.182c.417.437.278 1.121.096 1.366-.181.245-.501.053-.501.053l.032.502-.171.096.021.267.096.085.032.982-.234.086-.235-.203-.513-.043-.715-.598-.01-.48-.47-.363s-.758.256-.576-.437l-.16-.118-.235-.053-.032-1.473h-.001l-2.583 1.172.894.582 1.508 1.452 1.836 1.11 1.395 1.366 1.779 1.081 1.238 1.224.256 2.332 1.437-.624 2.064 1.679-3.189 1.313.143 1.491-1.155-1.074-.548.225.408.251 1.381 1.31.27 2.846-.609-.579-1.903 2.952v.086a.921.921 0 0 1 .63.181c.502.395.331 1.057 0 1.558-.331.502-.961.523-1.217.459-.256-.064-.459-.459-.459-.459h-.053l-1.975 3.096-.757-.513 2.006-3.148v-.075l-.715-.496-.31-.625c-.265.073-.442.039-.545-.003l-1.479 1.152-.173.086s.159.356-.254.526c0 0-.297.015-.326-.099 0 0-.585-.015-.328-.598.256-.441.683-.057.683-.057l1.024-.747a.772.772 0 0 1-.569-.106l-2.932-1.968c-.372-.25-.544-.627-.568-1.044l-.684-.497a.848.848 0 0 1 .003.025l.086.139v.043l.082.056-.082.035v.517l-.192.085c-.032.222-.331.596-.447.687-.103.093-.304.156-.535.156-.125 0-.24-.018-.336-.049l.026.284h-.352l-.053-.49-.418-.224-2.877 1.205.085.086-4.355 1.807-2.234-1.409 4.383-1.878.114.071 4.864-2.085v-.135c.073-.267.285-.502.385-.601a1.257 1.257 0 0 1-.636-.691l-.036.024.077 1.31-2.327.996-.206-.085-.071-2.135.55-.248-3.623-2.556.05 2.04-.48-1.771v-.572l-.203-.143.068 2.768-.48-1.772v-2.304a1.178 1.178 0 0 1-.178-.088l-.407-.013.334 1.368.074 3.042-.48-1.772v-2.64l-.747-.024v.188l-.342.185c-.128.384-.54.37-.54.37l-.314-.028-1.167.555-1.352.213-.227-.412-.996-.2v-.256l.427-.256v-.541l.313-.156v-.594l-5.665 2.657-.862.404.763.564 1.921 1.025 1.58 1.167 1.878.91 1.466 1.139 1.736.925.071 2.547-1.778-.868-1.523-1.124-1.865-.897-1.565-1.167-1.936-.953-1.617-1.196c.084.259-.094.438-.094.438h-.01l.085.046 1.636 1.238 1.95.954 1.58 1.195 1.878.997 1.495 1.11 1.764.882.072 2.661-1.85-.91-1.495-1.167-1.893-.911-1.608-1.181-1.921-.968-1.637-1.196-1.992-1.024-.433-.3-.001.015-.128.064v.182l.252.242.253.181 2.064 1.11 1.622 1.252 1.978 1.025 1.566 1.224 1.892.939 1.537 1.181 1.794.954v2.676l-1.808-.911-1.537-1.182-1.921-.953-1.622-1.238-1.979-.996-1.679-1.253-2.021-1.024-1.736-1.239-1.067-.213-.897.413-.498-.128.124-2.904-1.761.826.014.099-.967.456-.079.035v.513l.669.405.655-.313.612.377-.036 1.011-.327.149.313.185-.05 1.004-.341.156.313.185-.006.221 15.649 8.918.051.396-7.664 3v-.407L-52.71 33.428l-.375.173v-.427l3.646-1.708h-.693l-1.409-.654.107-1.967-1.715.828.797.427c.036.123.049.234.045.334l.126.065v2.248l-2.984 1.395.004.101 20.583 10.765.054.366-7.14 2.818-.025-.392-20.25-9.994-.411.193v-.564l2.397-1.123-1.422-.704-.324.213-.651.053-.292-.039-1.622-.839-.313.242-2.96 1.437v-.47l-26.228-12.843-.451.277v-.498l2.8-1.725 1.424-.876 2.903-1.788 26.81 13.895v.351l.882-.423v-1.644l-25.042-13.264-.476.294v-.547l3.058-1.882 1.535-.945 3.218-1.981 18.725 10.606-.022-.299 2.05-1.067.213 1.508-.402.9 6.251 3.541-3.296 1.551-3.241-1.79.019 1.277-.105.249 1.829.994-2.124 1.053 2.563-1.271c.015-.569.655-.612.655-.612l.313.142 3.387-1.593v.373l.468-.227-.083-1.484.483-1.238-.227-1.566.455-1.295-.213-1.509.441-1.209-.185-1.551 2.192-1.167.227 1.565-.441 1.181.221 1.478.078-.04.562.327.946-.47.627.363v.527l.064.057.313-.192-.278-.185.043-.954.548-.256.028-.669.249-.135.349.22.982-.498.598.377-.036.975-.114.029.434.284.961-.505.605.406-.036.953-.27.121.242.171-.043.968-.27.128.349.228.625-.302.093-2.168 2.875-1.38.199.384v1.324l.29.172 1.034-.5.095-.046-.056-.057c-.118-.395.245-.597.245-.597h.224c-.213-.395.15-.534.15-.534l.395-.011.139-.139.202-.01.16-.107.812-.854-.235-.011c-.086-.448.267-.587.267-.587l.512-.021a.891.891 0 0 1 .193-.1l-1.232-.804-.142.043-.32-.149-.017-.373.13-.076.249.135 1.16-.583v-.427l.861-.455.249.142.015.178.361-.195-1.678-1.157a.8.8 0 0 1-.25-.278.844.844 0 0 1-.418-.14l-2.23-1.492c-.067.265-.203.472-.424.584l-3.966 2.013c-.729.375-1.759-.523-2.339-1.603l-.662.368-.804-.562v-.712l1.024-.553c-.014-.488.151-.906.576-1.136l3.861-2.042c.101-.053.204-.089.306-.109l-.231-.607-.534-.377a.238.238 0 0 1-.042-.042c-.119-.153-.098-.532.263-.976.398-.491.953-.32.953-.32l.69.491.471.421c.526-.361 1.088-.491 1.539-.188l.207.138a.921.921 0 0 1 .364-.352l8.266-4.425c.27-.145.567-.116.863.031l.252-.111-.786-.605V.779l-1.356-1.035v-.832l.715-.395.417.32v-.384l.693-.363.278.213.011-.373.715-.374.363.331-.022-.086-.213-.277-.011-.224.737-.416 1.265 1.056v.47l.112.128.448-.246L-18.94.043l.011.16h.096l.8.662v.854l-.694.373v.363l-.939.363v.16l-.875.427v.086l-.715.405-1.238-.982-.587.256-.295-.226-.228.098v.247c.798 1.18 1.212 2.887.306 3.322l-.013.007-.827.427c.195.214.306.46.306.722v2.722c0 .825-1.102 1.494-2.462 1.494-.424 0-.823-.065-1.172-.18l3.488 2.485c.151.108.267.232.352.367a.955.955 0 0 1 .161.016c.037-.323.163-.581.405-.698l1.608-.777c-.013-.183-.025-.36-.032-.501-.028-.541.377-1.381.452-1.452 0 0-.263-.515-.166-1.126a.925.925 0 0 1 .21-.46 1.136 1.136 0 0 1 .116-1.743c-.166-.181-.304-.45-.326-.855l-.144-1.822-.288-.455s-.053-.954 1.427-.954c1.181.1 1.138.783 1.138.783l-.227.569-.014 2.007s-.043.398-.25.711a1.135 1.135 0 0 1 .138 1.759c.108.117.193.252.234.391.119.398.062.754-.08 1.039 0 0 .117.135.249.345h.523l.221.233-.002.001c.488-.178.933.114 1.254.594l.806-.387-.091-2.096v-.085l3.387-1.679.342.313.111 1.747 6.048-2.903-.175-.125v-.918l-.683.32-.597-.469-.075-1.014.238-.125-.291-.228-.057-.996.199-.114-.242-.213-.035-.844-21.705-18.586-.389.238v-.571l4.808-2.971 2.387-1.475 5.052-3.121L6.638-.598l.185.513z" style="fill:#333;fill-opacity:1;fill-rule:nonzero;stroke:none" transform="translate(612.057 363.921) scale(5.40447)"/></g></svg>